<?xml version="1.0" encoding="UTF-8" standalone="no"?>
<!-- Created with Inkscape (http://www.inkscape.org/) -->

<svg
   width="137.41603"
   height="33.994289"
   viewBox="0 0 137.41603 33.99429"
   version="1.1"
   id="svg5"
   inkscape:version="1.1.1 (3bf5ae0d25, 2021-09-20)"
   sodipodi:docname="itaria.svg"
   xmlns:inkscape="http://www.inkscape.org/namespaces/inkscape"
   xmlns:sodipodi="http://sodipodi.sourceforge.net/DTD/sodipodi-0.dtd"
   xmlns="http://www.w3.org/2000/svg"
   xmlns:svg="http://www.w3.org/2000/svg">
  <sodipodi:namedview
     id="namedview7"
     pagecolor="#ffffff"
     bordercolor="#999999"
     borderopacity="1"
     inkscape:pageshadow="0"
     inkscape:pageopacity="0"
     inkscape:pagecheckerboard="0"
     inkscape:document-units="px"
     showgrid="false"
     inkscape:zoom="5.8725028"
     inkscape:cx="18.731366"
     inkscape:cy="43.763283"
     inkscape:window-width="1020"
     inkscape:window-height="1000"
     inkscape:window-x="0"
     inkscape:window-y="0"
     inkscape:window-maximized="0"
     inkscape:current-layer="layer1"
     fit-margin-top="0"
     fit-margin-left="0"
     fit-margin-right="0"
     fit-margin-bottom="0"
     units="px"
     height="33.99429px"
     width="137.41603px" />
  <defs
     id="defs2">
    <clipPath
       clipPathUnits="userSpaceOnUse"
       id="clipPath14352">
      <rect
         style="opacity:0;fill:#0000ff;fill-rule:evenodd;stroke-width:0.104435"
         id="rect14354"
         width="65.122116"
         height="19.734962"
         x="74.869171"
         y="96.974182" />
    </clipPath>
  </defs>
  <g
     inkscape:label="Layer 1"
     inkscape:groupmode="layer"
     id="layer1"
     transform="translate(-38.644616,-53.99465)"
     style="display:inline">
    <g
       aria-label="Italiana"
       transform="matrix(2.2581923,0,0,2.5204146,-137.71098,-200.08141)"
       id="text2607"
       style="font-size:10.5833px;line-height:1.25;font-family:Damion;-inkscape-font-specification:Damion;word-spacing:0px;white-space:pre;inline-size:60.1896;stroke-width:0.264583"
       clip-path="url(#clipPath14352)">
      <path
         d="m 81.008202,112.87946 q -0.641536,-0.0649 -1.146987,-0.0833 -0.495732,-0.0278 -0.933141,-0.0278 -0.291608,0 -0.573494,0.009 -0.272167,0.009 -0.554053,0.0184 -0.272168,0 -0.573494,0.009 -0.291607,0.009 -0.622094,0.009 -0.320768,0 -0.495732,-0.17594 -0.174969,-0.17594 -0.174969,-0.43516 0,-0.10177 0.02916,-0.21294 0.02916,-0.0926 0.223567,-0.19443 0.204124,-0.11109 0.524892,-0.2037 0.330487,-0.10176 0.767897,-0.17594 0.43741,-0.074 0.933142,-0.11108 0.505452,-1.04623 1.049785,-2.11098 0.554053,-1.074 1.108107,-2.08319 0.554051,-1.01845 1.078944,-1.94431 0.524892,-0.92588 0.981742,-1.68509 0.456852,-0.76846 0.8165,-1.33325 0.369369,-0.56477 0.602654,-0.86105 -0.495731,0.10176 -0.962302,0.2222 -0.466571,0.11108 -1.049785,0.22222 -0.11664,0.0371 -0.233286,0.0371 -0.281886,0 -0.437409,-0.18517 -0.15552,-0.19443 -0.15552,-0.46295 0,-0.1204 0.223564,-0.27774 0.233286,-0.16663 0.631815,-0.33333 0.408249,-0.17594 0.952582,-0.33331 0.554053,-0.16666 1.19559,-0.296275 0.651255,-0.129627 1.36083,-0.203691 0.719298,-0.08333 1.448315,-0.08333 0.680416,0 1.059504,0.138872 0.388809,0.129627 0.388809,0.453674 0,0.1574 -0.09721,0.32405 -0.09721,0.15749 -0.262446,0.28703 -0.15552,0.12954 -0.37909,0.21294 -0.223565,0.074 -0.466571,0.074 -0.136089,0 -0.252725,-0.009 -0.11664,-0.0185 -0.252726,-0.0185 -0.359648,0 -0.670695,0.0185 -0.311047,0.009 -0.592935,0.0278 0.01945,0.0926 0.01945,0.13885 0,0.12972 -0.04861,0.24999 -0.0486,0.11108 -0.09721,0.21294 -0.301326,0.60182 -0.729017,1.45362 -0.427689,0.84255 -0.913701,1.79618 -0.486011,0.95365 -0.991464,1.93507 -0.495731,0.9814 -0.94286,1.85172 -0.447131,0.87032 -0.806779,1.55546 -0.35965,0.67588 -0.544335,1.02771 0.544335,0.0462 1.001185,0.12972 0.45685,0.074 0.777618,0.19443 0.330487,0.11109 0.515171,0.2685 0.184694,0.15749 0.184694,0.35183 0,0.13886 -0.09721,0.27776 -0.09721,0.12954 -0.252725,0.24071 -0.15552,0.10195 -0.349929,0.16663 -0.194404,0.0555 -0.39853,0.0555 -0.223565,0 -0.427689,-0.0555 -0.194406,-0.0555 -0.388809,-0.074 z"
         id="path13969"
         style="stroke-width:0.485717" />
      <path
         d="m 87.81236,107.80571 q -0.359648,0.66662 -0.680415,1.30548 -0.320768,0.62957 -0.602654,1.16659 -0.11664,0.2222 -0.233285,0.51847 -0.106916,0.28702 -0.106916,0.50923 0,0.12971 0.05831,0.20369 0.06804,0.074 0.213845,0.074 0.204125,0 0.515172,-0.11109 0.311049,-0.1204 0.670697,-0.30553 0.359648,-0.19443 0.758178,-0.43516 0.398528,-0.24999 0.777618,-0.50923 0.388809,-0.2685 0.738736,-0.52773 0.349929,-0.2685 0.622096,-0.49072 0.15552,-0.10177 0.291606,-0.10177 0.165244,0 0.272167,0.13885 0.106915,0.13886 0.106915,0.35183 0,0.21296 -0.106915,0.43516 -0.106915,0.22221 -0.388809,0.43516 -0.631815,0.54627 -1.283071,1.03697 -0.641534,0.49072 -1.28307,0.87032 -0.631814,0.37035 -1.25391,0.59256 -0.622094,0.2222 -1.205307,0.2222 -0.388809,0 -0.651255,-0.10177 -0.262446,-0.0926 -0.427691,-0.25925 -0.155519,-0.17594 -0.223564,-0.39811 -0.06803,-0.23147 -0.06803,-0.49072 0,-0.46293 0.165244,-0.9629 0.165245,-0.49996 0.369369,-0.89809 0.291607,-0.57403 0.573494,-1.13882 0.291607,-0.56477 0.563772,-1.08326 h -0.41797 q -0.544332,0 -0.748457,-0.16662 -0.204124,-0.16663 -0.204124,-0.3796 0,-0.0926 0.05833,-0.2222 0.06803,-0.13886 0.184675,-0.25 0.126365,-0.1204 0.301328,-0.20369 0.17497,-0.0833 0.39853,-0.0833 h 1.049783 l 2.05097,-3.87937 q 0.194403,-0.35183 0.47629,-0.49997 0.291607,-0.15749 0.602654,-0.15749 0.291607,0 0.534613,0.14818 0.243005,0.14817 0.243005,0.4907 0,0.17594 -0.08749,0.36109 -0.07776,0.17594 -0.213845,0.41663 -0.08749,0.15749 -0.213845,0.37962 -0.126365,0.21294 -0.272168,0.46293 -0.136089,0.24073 -0.291605,0.50923 -0.145814,0.2685 -0.291607,0.51847 -0.330487,0.59256 -0.699856,1.24992 h 3.168793 q 0.233286,0 0.427691,0.0278 0.194403,0.0185 0.330487,0.0926 0.145795,0.0649 0.223565,0.18519 0.07776,0.1204 0.07776,0.32404 0,0.10195 -0.03888,0.2037 -0.02916,0.10176 -0.126364,0.18516 -0.08749,0.0833 -0.252727,0.13886 -0.15552,0.0555 -0.408249,0.074 z"
         id="path13971"
         style="stroke-width:0.485717" />
      <path
         d="m 93.887502,107.8983 q -0.45685,0 -0.88454,0.2222 -0.427689,0.2222 -0.758178,0.5833 -0.330488,0.36109 -0.524893,0.81476 -0.194403,0.44442 -0.194403,0.89809 0,0.18517 0.01943,0.38886 0.02916,0.19443 0.11664,0.36109 0.08749,0.16663 0.243004,0.27777 0.165245,0.11108 0.437412,0.11108 0.213844,0 0.495732,-0.17594 0.291605,-0.18517 0.592933,-0.46293 0.311047,-0.28701 0.602655,-0.62033 0.291605,-0.34257 0.52489,-0.66663 0.233287,-0.32404 0.37909,-0.58329 0.145795,-0.25924 0.145795,-0.3796 0,-0.17594 -0.126364,-0.3148 -0.126365,-0.14817 -0.311047,-0.24999 -0.184694,-0.10177 -0.39853,-0.14817 -0.204125,-0.0555 -0.359648,-0.0555 z m 6.736118,2.38872 q -0.17497,0.15749 -0.46657,0.43516 -0.291607,0.27776 -0.670697,0.60182 -0.369369,0.32406 -0.797058,0.65736 -0.41797,0.32406 -0.865101,0.59256 -0.437409,0.2685 -0.8651,0.43516 -0.427689,0.17594 -0.806779,0.17594 -0.340208,0 -0.583212,-0.13885 -0.243007,-0.13885 -0.408251,-0.36109 -0.15552,-0.22221 -0.233286,-0.49997 -0.07776,-0.28702 -0.07776,-0.58329 0,-0.19443 0.02916,-0.3796 0.02916,-0.19445 0.09721,-0.3611 -0.301326,0.38887 -0.690135,0.8055 -0.37909,0.40739 -0.826219,0.74996 -0.437412,0.3333 -0.923422,0.54626 -0.476292,0.2222 -0.972024,0.2222 -0.252725,0 -0.592933,-0.10176 -0.330487,-0.0926 -0.631815,-0.3148 -0.301327,-0.2222 -0.505451,-0.57403 -0.204125,-0.35183 -0.204125,-0.86106 0,-0.37962 0.11664,-0.90735 0.126365,-0.52776 0.369369,-1.09253 0.252726,-0.57403 0.631815,-1.12955 0.388809,-0.55553 0.913702,-0.99069 0.524893,-0.4444 1.195588,-0.7129 0.670695,-0.27776 1.496914,-0.27776 0.427691,0 0.748459,0.10176 0.320766,0.10177 0.544332,0.22221 0.252726,0.14817 0.447131,0.32405 0.165244,-0.0833 0.340206,-0.1573 0.145814,-0.0649 0.301328,-0.11109 0.165245,-0.0555 0.281887,-0.0555 0.369369,0 0.602654,0.19443 0.233285,0.19443 0.233285,0.4259 0,0.0649 -0.0098,0.10177 -0.0486,0.17594 -0.15552,0.4444 -0.09721,0.26852 -0.223564,0.60182 -0.126365,0.32406 -0.262446,0.68514 -0.126365,0.35183 -0.233286,0.69441 -0.106915,0.34257 -0.174969,0.6481 -0.06803,0.29627 -0.06803,0.50923 0,0.27776 0.09721,0.46293 0.09721,0.17594 0.330487,0.17594 0.145795,0 0.340208,-0.0833 0.204125,-0.0926 0.43741,-0.24073 0.233286,-0.14817 0.476292,-0.33332 0.252725,-0.19443 0.486011,-0.38887 0.544332,-0.46293 1.156705,-1.05548 0.15552,-0.1204 0.30133,-0.1204 0.1944,0 0.32076,0.18516 0.13609,0.17595 0.13609,0.39813 0,0.25924 -0.18467,0.43514 z"
         id="path13973"
         style="stroke-width:0.485717" />
      <path
         d="m 101.24572,110.27778 q -0.10692,0.21294 -0.21385,0.49996 -0.0972,0.27776 -0.0972,0.49996 0,0.13886 0.0583,0.22221 0.0583,0.0833 0.22357,0.0833 0.20412,0 0.50545,-0.11108 0.31104,-0.1204 0.66097,-0.30554 0.35965,-0.19443 0.73874,-0.43516 0.38881,-0.24999 0.7679,-0.50922 0.37909,-0.2685 0.7193,-0.52774 0.34992,-0.2685 0.62209,-0.49072 0.0778,-0.0649 0.18469,-0.0926 0.10692,-0.0278 0.18468,-0.0278 0.1944,0 0.32077,0.12972 0.12636,0.12971 0.12636,0.34256 0,0.19444 -0.13609,0.43516 -0.13609,0.24073 -0.47629,0.4722 -0.62209,0.54626 -1.25391,1.03696 -0.63181,0.49072 -1.26363,0.87032 -0.62209,0.37036 -1.24419,0.59256 -0.61237,0.2222 -1.19559,0.2222 -0.39853,0 -0.670691,-0.10176 -0.262446,-0.10177 -0.427691,-0.27777 -0.155519,-0.17594 -0.223564,-0.41663 -0.06803,-0.24073 -0.06803,-0.50923 0,-0.45368 0.136089,-0.92588 0.145814,-0.48144 0.340208,-0.87956 0.340208,-0.72219 0.690139,-1.43509 0.34993,-0.71292 0.64154,-1.30548 l 2.94523,-5.97184 q 0.17497,-0.36108 0.46657,-0.50923 0.30133,-0.14817 0.60265,-0.14817 0.30133,0 0.54433,0.15749 0.25273,0.1573 0.25273,0.50922 0,0.16663 -0.0875,0.35183 -0.0778,0.18517 -0.20412,0.39813 -0.24301,0.43516 -0.58321,1.06475 -0.33049,0.62957 -0.7193,1.37027 -0.37909,0.74069 -0.78734,1.54621 -0.39853,0.79623 -0.78734,1.55545 -0.37909,0.7592 -0.71929,1.44435 -0.33049,0.67589 -0.5735,1.17585 z"
         id="path13975"
         style="stroke-width:0.485717" />
      <path
         d="m 107.08757,104.94477 q 0,-0.21294 0.0778,-0.43514 0.0875,-0.23148 0.25273,-0.41665 0.16524,-0.18517 0.40824,-0.30554 0.25273,-0.1204 0.59294,-0.1204 0.56377,0 0.78734,0.21296 0.22356,0.20368 0.22356,0.51848 0,0.17594 -0.0778,0.38886 -0.068,0.21296 -0.21384,0.39812 -0.14582,0.17595 -0.37909,0.29629 -0.23329,0.1204 -0.55405,0.1204 -0.60266,0 -0.84566,-0.17594 -0.24301,-0.18517 -0.27217,-0.48146 z m -1.06922,2.08321 q 0.16524,-0.25924 0.37908,-0.37034 0.21385,-0.11108 0.43741,-0.11108 0.36937,0 0.63182,0.23146 0.27217,0.22222 0.27217,0.57405 -0.01,0.0833 -0.0292,0.16663 -0.01,0.0833 -0.0583,0.16662 -0.13609,0.24073 -0.22357,0.40739 -0.0875,0.16663 -0.16524,0.3148 -0.068,0.13885 -0.13609,0.27776 -0.068,0.13885 -0.16524,0.3333 -0.11664,0.23147 -0.26245,0.50923 -0.14579,0.2685 -0.28189,0.55553 -0.12636,0.287 -0.22356,0.56477 -0.0875,0.27776 -0.0875,0.50922 0,0.24999 0.12637,0.33332 0.13609,0.074 0.37909,0.074 0.27216,0 0.56377,-0.11108 0.30133,-0.11109 0.60266,-0.28703 0.30132,-0.17594 0.59293,-0.39812 0.29161,-0.23147 0.54433,-0.46294 0.26245,-0.23146 0.47629,-0.44442 0.22357,-0.21294 0.36937,-0.3796 0.19441,-0.17594 0.38881,-0.17594 0.17497,0 0.28189,0.14817 0.11664,0.14817 0.11664,0.3796 0,0.21296 -0.11664,0.45367 -0.10692,0.24073 -0.35965,0.45368 -0.49573,0.48146 -1.0109,0.92587 -0.51517,0.43516 -1.05951,0.77772 -0.53461,0.33333 -1.07894,0.537 -0.54434,0.2037 -1.09839,0.2037 -0.78734,0 -1.24419,-0.3796 -0.44713,-0.38887 -0.44713,-1.20363 0,-0.4259 0.12637,-0.83328 0.12636,-0.40738 0.30132,-0.78699 0.17497,-0.38887 0.36937,-0.7407 0.19441,-0.36107 0.33049,-0.68513 0.0486,-0.1204 0.16524,-0.37036 0.12637,-0.24997 0.26245,-0.50922 0.15552,-0.30554 0.33049,-0.6481 z"
         id="path13977"
         style="stroke-width:0.485717" />
      <path
         d="m 113.25019,107.8983 q -0.45685,0 -0.88454,0.2222 -0.42769,0.2222 -0.75817,0.5833 -0.33049,0.36109 -0.5249,0.81476 -0.1944,0.44442 -0.1944,0.89809 0,0.18517 0.0194,0.38886 0.0292,0.19443 0.11664,0.36109 0.0875,0.16663 0.243,0.27777 0.16525,0.11108 0.43742,0.11108 0.21384,0 0.49573,-0.17594 0.2916,-0.18517 0.59293,-0.46293 0.31105,-0.28701 0.60266,-0.62033 0.2916,-0.34257 0.52489,-0.66663 0.23328,-0.32404 0.37909,-0.58329 0.14579,-0.25924 0.14579,-0.3796 0,-0.17594 -0.12636,-0.3148 -0.12637,-0.14817 -0.31105,-0.24999 -0.18469,-0.10177 -0.39853,-0.14817 -0.20413,-0.0555 -0.35965,-0.0555 z m 6.73612,2.38872 q -0.17497,0.15749 -0.46657,0.43516 -0.29161,0.27776 -0.6707,0.60182 -0.36936,0.32406 -0.79705,0.65736 -0.41797,0.32406 -0.8651,0.59256 -0.43741,0.2685 -0.8651,0.43516 -0.42769,0.17594 -0.80678,0.17594 -0.34021,0 -0.58322,-0.13885 -0.243,-0.13885 -0.40825,-0.36109 -0.15552,-0.22221 -0.23328,-0.49997 -0.0778,-0.28702 -0.0778,-0.58329 0,-0.19443 0.0292,-0.3796 0.0292,-0.19445 0.0972,-0.3611 -0.30132,0.38887 -0.69013,0.8055 -0.37909,0.40739 -0.82622,0.74996 -0.43741,0.3333 -0.92342,0.54626 -0.4763,0.2222 -0.97203,0.2222 -0.25272,0 -0.59293,-0.10176 -0.33049,-0.0926 -0.63182,-0.3148 -0.30132,-0.2222 -0.50545,-0.57403 -0.20412,-0.35183 -0.20412,-0.86106 0,-0.37962 0.11664,-0.90735 0.12636,-0.52776 0.36937,-1.09253 0.25272,-0.57403 0.63181,-1.12955 0.38881,-0.55553 0.9137,-0.99069 0.5249,-0.4444 1.19559,-0.7129 0.6707,-0.27776 1.49692,-0.27776 0.42769,0 0.74846,0.10176 0.32076,0.10177 0.54433,0.22221 0.25272,0.14817 0.44713,0.32405 0.16524,-0.0833 0.3402,-0.1573 0.14582,-0.0649 0.30133,-0.11109 0.16525,-0.0555 0.28189,-0.0555 0.36937,0 0.60265,0.19443 0.23329,0.19443 0.23329,0.4259 0,0.0649 -0.01,0.10177 -0.0486,0.17594 -0.15552,0.4444 -0.0972,0.26852 -0.22357,0.60182 -0.12636,0.32406 -0.26244,0.68514 -0.12637,0.35183 -0.23329,0.69441 -0.10691,0.34257 -0.17497,0.6481 -0.068,0.29627 -0.068,0.50923 0,0.27776 0.0972,0.46293 0.0972,0.17594 0.33049,0.17594 0.14579,0 0.3402,-0.0833 0.20413,-0.0926 0.43741,-0.24073 0.23329,-0.14817 0.4763,-0.33332 0.25272,-0.19443 0.48601,-0.38887 0.54433,-0.46293 1.1567,-1.05548 0.15552,-0.1204 0.30133,-0.1204 0.1944,0 0.32077,0.18516 0.13609,0.17595 0.13609,0.39813 0,0.25924 -0.18468,0.43514 z"
         id="path13979"
         style="stroke-width:0.485717" />
      <path
         d="m 120.53065,107.33351 q 0.1944,-0.39812 0.48601,-0.59256 0.2916,-0.19443 0.57348,-0.19443 0.2333,0 0.41798,0.16663 0.18471,0.15731 0.18471,0.47219 0,0.1204 -0.0292,0.25924 -0.0292,0.13885 -0.10684,0.29629 0.21385,-0.25926 0.61238,-0.52776 0.39852,-0.27776 0.87483,-0.4907 0.486,-0.2222 0.99144,-0.36109 0.51519,-0.13886 0.97204,-0.13886 0.51516,0 0.85538,0.24071 0.34992,0.23149 0.34992,0.79626 0,0.33332 -0.10684,0.69439 -0.10684,0.3611 -0.28189,0.72219 -0.16534,0.36109 -0.37909,0.7129 -0.20412,0.34259 -0.40825,0.64812 -0.20412,0.30553 -0.37909,0.56477 -0.16534,0.24999 -0.26244,0.41665 -0.1264,0.14817 -0.1264,0.34257 0,0.074 0.0485,0.12971 0.0485,0.0555 0.15556,0.0555 0.0681,0 0.15555,-0.009 0.0875,-0.0185 0.21385,-0.10177 0.52489,-0.18517 1.06923,-0.46293 0.55404,-0.27776 1.0595,-0.5833 0.50544,-0.31479 0.92342,-0.62032 0.42769,-0.3148 0.70958,-0.56479 0.0777,-0.0649 0.15556,-0.0926 0.0777,-0.0278 0.14577,-0.0278 0.16515,0 0.25271,0.1204 0.0972,0.1204 0.0972,0.30553 0,0.28703 -0.1944,0.63886 -0.18471,0.35183 -0.59294,0.65736 -0.55405,0.3796 -1.02063,0.6944 -0.45685,0.31479 -0.94286,0.59255 -0.47628,0.2685 -1.03035,0.50923 -0.54431,0.23147 -1.28305,0.43516 -0.25273,0.074 -0.46658,0.11108 -0.20413,0.0371 -0.37909,0.0371 -0.51517,0 -0.75817,-0.2685 -0.23328,-0.27776 -0.23328,-0.76846 0,-0.0649 0,-0.1204 0.009,-0.0649 0.0194,-0.13886 0.0194,-0.287 0.15556,-0.62957 0.14578,-0.34258 0.34021,-0.70366 0.20413,-0.36109 0.4277,-0.71292 0.22356,-0.36109 0.40825,-0.67589 0.1944,-0.32406 0.32076,-0.57403 0.12641,-0.24999 0.12641,-0.40739 0,-0.13885 -0.0875,-0.23147 -0.0777,-0.10176 -0.243,-0.10176 -0.6221,0 -1.18587,0.35183 -0.55406,0.35183 -1.04007,0.87032 -0.48601,0.50922 -0.89426,1.08326 -0.40825,0.57403 -0.7193,1.0277 -0.1944,0.30555 -0.35965,0.65738 -0.15552,0.34256 -0.33049,0.6481 -0.17496,0.29627 -0.39853,0.4907 -0.21384,0.20369 -0.54433,0.20369 -0.34021,0 -0.53461,-0.20369 -0.1944,-0.20368 -0.1944,-0.49997 0,-0.1573 0.13608,-0.50922 0.13609,-0.35183 0.34993,-0.81476 0.21385,-0.46293 0.47629,-0.99067 0.27217,-0.53702 0.53462,-1.05549 0.27216,-0.52775 0.51517,-0.99068 0.243,-0.46293 0.39853,-0.78699 z"
         id="path13981"
         style="stroke-width:0.485717" />
      <path
         d="m 132.05884,107.8983 q -0.45685,0 -0.88455,0.2222 -0.42768,0.2222 -0.75817,0.5833 -0.33049,0.36109 -0.52489,0.81476 -0.19442,0.44442 -0.19442,0.89809 0,0.18517 0.0194,0.38886 0.0291,0.19443 0.11662,0.36109 0.0875,0.16663 0.243,0.27777 0.16515,0.11108 0.43742,0.11108 0.21383,0 0.49572,-0.17594 0.29161,-0.18517 0.59294,-0.46293 0.31104,-0.28701 0.60265,-0.62033 0.29161,-0.34257 0.52489,-0.66663 0.2333,-0.32404 0.37909,-0.58329 0.14578,-0.25924 0.14578,-0.3796 0,-0.17594 -0.1264,-0.3148 -0.1264,-0.14817 -0.31106,-0.24999 -0.18471,-0.10177 -0.39853,-0.14817 -0.20412,-0.0555 -0.35964,-0.0555 z m 6.73611,2.38872 q -0.17493,0.15749 -0.46656,0.43516 -0.29161,0.27776 -0.67071,0.60182 -0.36936,0.32406 -0.79704,0.65736 -0.41798,0.32406 -0.86511,0.59256 -0.43742,0.2685 -0.8651,0.43516 -0.4277,0.17594 -0.80677,0.17594 -0.34022,0 -0.58322,-0.13885 -0.243,-0.13885 -0.40825,-0.36109 -0.15556,-0.22221 -0.2333,-0.49997 -0.0777,-0.28702 -0.0777,-0.58329 0,-0.19443 0.0292,-0.3796 0.0292,-0.19445 0.0972,-0.3611 -0.30131,0.38887 -0.69013,0.8055 -0.3791,0.40739 -0.82623,0.74996 -0.4374,0.3333 -0.92341,0.54626 -0.4763,0.2222 -0.97202,0.2222 -0.25273,0 -0.59294,-0.10176 -0.33049,-0.0926 -0.63182,-0.3148 -0.30132,-0.2222 -0.50544,-0.57403 -0.20413,-0.35183 -0.20413,-0.86106 0,-0.37962 0.11662,-0.90735 0.12641,-0.52776 0.36937,-1.09253 0.25273,-0.57403 0.63181,-1.12955 0.38882,-0.55553 0.91371,-0.99069 0.52488,-0.4444 1.19559,-0.7129 0.6707,-0.27776 1.4969,-0.27776 0.4277,0 0.74847,0.10176 0.32076,0.10177 0.54433,0.22221 0.25273,0.14817 0.44713,0.32405 0.16515,-0.0833 0.34022,-0.1573 0.14577,-0.0649 0.30131,-0.11109 0.16534,-0.0555 0.28189,-0.0555 0.36936,0 0.60266,0.19443 0.23328,0.19443 0.23328,0.4259 0,0.0649 -0.009,0.10177 -0.0485,0.17594 -0.15556,0.4444 -0.0973,0.26852 -0.22357,0.60182 -0.12641,0.32406 -0.26244,0.68514 -0.1264,0.35183 -0.23328,0.69441 -0.10684,0.34257 -0.17493,0.6481 -0.0681,0.29627 -0.0681,0.50923 0,0.27776 0.0973,0.46293 0.0972,0.17594 0.33048,0.17594 0.14578,0 0.34022,-0.0833 0.20412,-0.0926 0.4374,-0.24073 0.23328,-0.14817 0.47629,-0.33332 0.25273,-0.19443 0.48602,-0.38887 0.54432,-0.46293 1.1567,-1.05548 0.15555,-0.1204 0.30133,-0.1204 0.1944,0 0.32077,0.18516 0.13618,0.17595 0.13618,0.39813 0,0.25924 -0.18471,0.43514 z"
         id="path13983"
         style="stroke-width:0.485717" />
    </g>
    <path
       style="fill:none;stroke:#000000;stroke-width:1px;stroke-linecap:butt;stroke-linejoin:miter;stroke-opacity:1"
       d="m 175.71471,77.887605 -7.76688,7.442784 -4.98595,-5.995814 v 0 l 2.52423,-10.057689 -2.52423,10.057689 -7.95573,2.590111 -1.70285,-6.811406 7.19964,-3.246315 4.98317,-2.590079 -2.52423,10.057689 -6.59344,4.633532 -1.70286,-5.449124 -9.81259,2.519669 -5.13633,1.23702 3.86329,-10.26764 -5.66323,-0.537781 -7.09105,13.860138 7.09105,-13.860138 -4.67606,6.417656 -6.84241,6.420771 -5.9101,-4.974103 2.52428,-10.057689 -2.52428,10.057689 -5.32872,7.698665 -4.30746,-8.00235 -0.70241,-3.173655 12.86287,-6.580349 -2.52428,10.057689 -6.35043,6.336384 -3.28575,-6.640069 -8.6703,1.890336 -0.48283,-11.247753 -1.31707,8.657649 -12.127391,6.658696 1.262035,-7.101911 v 0 0 l 9.976785,-21.505993 -9.976695,21.505691 -6.71125,5.739932 -6.041764,-4.292962 -6.218766,5.314673 -3.39542,-6.318252 2.56817,-6.767288 9.570282,-2.286822 L 76.76349,79.334575 69.863583,84.989818 67.149304,78.330996 57.052235,80.96793 64.755029,59.787617 69.717474,71.563708 56.48156,71.750521 45.221085,84.420242 39.360418,80.452253 58.784792,54.66695 47.546329,56.32319 58.786285,54.66695 39.360418,80.452253 l 5.8607,3.969376 12.665252,-15.961282 11.831103,3.103362 -4.848944,-12.460505 -7.816294,21.864726 10.097068,-2.636933 2.48721,4.952698 9.876538,-6.470835 -0.225296,-7.535974 -9.570282,2.286823 -2.56817,6.767288 2.316925,5.293269 7.297261,-4.289691 2.749562,4.119405 10.003363,-5.566072 9.238859,-22.020121 -9.238859,22.020121 -1.659391,6.587783 12.524747,-6.144568 1.31707,-8.65765 0.48283,11.247754 5.93929,0.148761 7.15197,2.894848 5.21522,-4.630261 2.52428,-10.057689 -4.98282,2.590079 -7.88005,3.99027 1.54738,6.575035 8.79121,-3.097695 3.80989,4.630261 8.94262,-6.076928 4.67606,-6.417656 -7.6587,12.664869 7.6587,-12.664869 5.66323,0.537781 -3.81948,9.917655 13.14548,-2.558551 3.57599,4.597699 6.47994,-4.630261 2.52423,-10.057689 -8.83389,2.086849 -3.74627,8.173687 4.08684,4.597699 5.96909,-4.800546 3.56688,4.630261 7.49255,-5.108555"
       id="path116"
       sodipodi:nodetypes="ccccccccccccccccccccccccccccccccccccccccccccccccccccccccccccccccccccccccccccccccccccccccccccccccccccccccc" />
  </g>
</svg>
